# xmcd
#
# Track frame offsets:
# 150
# 11774
# 25218
# 39008
# 49274
# 60002
# 73786
# 91583
# 103577
# 113533
# 122600
# 136171
# 149746
# 159015
# 170053
# 191958
# 202463
# 215981
# 229577
# 243522
# 253045
# 268826
# 281731
# 298654
# 310252
#
# Disc length: 4291 seconds
#
# Revision: 0
# Processed by: cddbd v1.5.1PL2 Copyright (c) Steve Scherf et al.
# Submitted via: Audion 3.0.2 (http://www.panic.com/audion/)
#
DISCID=7710c119
DTITLE=Live at Osteraker - Johnny cash
DYEAR=1900
DGENRE=
TTITLE0=Orleans Parish Prison
TTITLE1=Jacob Green
TTITLE2=Me And Bobby McGee
TTITLE3=Prisoner's Song
TTITLE4=Invertebraes
TTITLE5=That Silver Haired Daddy Of Mine
TTITLE6=City Jail
TTITLE7=Life Of A Prisoner
TTITLE8=Looking Back In Ange
TTITLE9=Nobody Cared
TTITLE10=Help Me Make It Through The Night
TTITLE11=I Saw A Man
TTITLE12=n
TTITLE13=n
TTITLE14=n
TTITLE15=n
TTITLE16=n
TTITLE17=n
TTITLE18=n
TTITLE19=n
TTITLE20=n
TTITLE21=n
TTITLE22=v
TTITLE23=v
TTITLE24=v
EXTD=
EXTT0=
EXTT1=
EXTT2=
EXTT3=
EXTT4=
EXTT5=
EXTT6=
EXTT7=
EXTT8=
EXTT9=
EXTT10=
EXTT11=
EXTT12=
EXTT13=
EXTT14=
EXTT15=
EXTT16=
EXTT17=
EXTT18=
EXTT19=
EXTT20=
EXTT21=
EXTT22=
EXTT23=
EXTT24=
PLAYORDER=
